<svg width="34" height="24" viewBox="0 0 34 24" fill="none" xmlns="http://www.w3.org/2000/svg">
  <path fill="#fff" d="M0 0h34v24H0z"/>
  <path d="M5 2.996v18.008c0 .862.706 1.567 1.568 1.567h10.765C25.472 22.571 29 18.018 29 11.976c0-6.01-3.528-10.548-11.667-10.548H6.568C5.706 1.428 5 2.134 5 2.996z" fill="#fff"/>
  <path d="M12.205 5.845v13.306H18c5.261 0 7.543-2.97 7.543-7.17 0-4.02-2.282-7.139-7.543-7.139h-4.79c-.557 0-1.004.455-1.004 1.003z" fill="#C06"/>
  <path d="M17.334 21.137H7.972a1.505 1.505 0 01-1.505-1.504V4.375c0-.83.674-1.504 1.505-1.504h9.362c8.883 0 10.208 5.712 10.208 9.113 0 5.901-3.63 9.153-10.208 9.153zM7.972 3.372A1 1 0 006.97 4.375v15.258a1 1 0 001.003 1.003h9.362c6.257 0 9.707-3.072 9.707-8.652 0-7.491-6.085-8.612-9.707-8.612H7.972z" fill="#000"/>
  <path d="M14.245 10.187c.203 0 .392.032.572.094.18.063.33.165.463.29.125.133.227.298.305.486.07.196.11.423.11.69 0 .235-.031.446-.086.642a1.5 1.5 0 01-.267.51c-.117.14-.266.25-.447.337-.18.078-.392.125-.635.125h-1.372V10.18h1.357v.008zm-.047 2.594a.983.983 0 00.297-.047.584.584 0 00.251-.164.914.914 0 00.18-.298c.048-.126.071-.267.071-.447a1.77 1.77 0 00-.047-.43.858.858 0 00-.157-.33.707.707 0 00-.282-.212 1.155 1.155 0 00-.431-.07h-.502v2.006h.62v-.008zm4.326-2.593v.588h-1.677v.682h1.544v.54h-1.544v.776h1.717v.588h-2.415V10.18h2.375v.008zm2.4 0l1.191 3.181h-.729l-.243-.705h-1.192l-.25.705h-.706l1.2-3.181h.729zm.039 1.951l-.4-1.168h-.008l-.415 1.168h.823zm2.29-1.951v2.594h1.552v.587h-2.25v-3.181h.698z" fill="#fff"/>
  <path d="M9.587 13.244a1.466 1.466 0 100-2.931 1.466 1.466 0 000 2.931zm1.105 5.907a2.216 2.216 0 01-2.219-2.218v-1.731a1.112 1.112 0 112.227 0v3.95h-.008z" fill="#000"/>
</svg>
