<svg width="34" height="24" viewBox="0 0 34 24" fill="none" xmlns="http://www.w3.org/2000/svg">
  <path fill="#FFB3C7" d="M0 0h34v24H0z"/>
  <path d="M29.411 13.39a.753.753 0 00-.749.757c0 .417.335.756.75.756a.753.753 0 00.749-.756.753.753 0 00-.75-.756zm-2.465-.584c0-.572-.484-1.035-1.082-1.035-.597 0-1.082.463-1.082 1.035 0 .572.485 1.035 1.082 1.035.598 0 1.082-.463 1.082-1.035zm.004-2.012h1.194v4.024H26.95v-.257a2.08 2.08 0 01-1.184.368 2.114 2.114 0 01-2.104-2.123c0-1.173.942-2.123 2.104-2.123.44 0 .847.136 1.184.369v-.258zm-9.554.524v-.524h-1.222v4.024h1.225v-1.879c0-.634.68-.974 1.153-.974h.014v-1.17c-.485 0-.93.209-1.17.523zm-3.045 1.488c0-.572-.484-1.035-1.082-1.035-.597 0-1.082.463-1.082 1.035 0 .572.485 1.035 1.082 1.035.598 0 1.082-.463 1.082-1.035zm.004-2.012h1.194v4.024h-1.194v-.257a2.08 2.08 0 01-1.183.368 2.114 2.114 0 01-2.104-2.123c0-1.173.942-2.123 2.104-2.123.439 0 .846.136 1.183.369v-.258zm7.186-.108c-.477 0-.928.15-1.23.562v-.454h-1.189v4.024h1.204v-2.115c0-.611.406-.911.896-.911.524 0 .826.316.826.903v2.123h1.193v-2.559c0-.936-.738-1.573-1.7-1.573zM9.329 14.818h1.25V9h-1.25v5.817zm-5.49.001h1.324V9H3.839v5.82zM8.467 9a4.65 4.65 0 01-1.353 3.303l1.829 2.517H7.309L5.32 12.085l.513-.388A3.352 3.352 0 007.173 9h1.294z" fill="#0A0B09"/>
</svg>
