<svg width="34" height="24" viewBox="0 0 34 24" fill="none" xmlns="http://www.w3.org/2000/svg">
<rect width="34" height="24" fill="white"/>
<path d="M24.9582 10.6541C24.9459 8.64466 23.3245 7.01015 21.3401 7.01015C19.3557 7.01015 17.698 8.65 17.698 10.7439C17.698 11.7267 18.0744 12.6604 18.7514 13.373C19.4401 14.0941 20.3493 14.4915 21.3156 14.4915C22.4191 14.4915 23.9652 13.9611 24.7009 12.4569C24.7169 12.4249 24.7201 12.4088 24.7201 12.4088H23.2402L23.2311 12.4195C22.8339 12.8954 22.0833 13.2165 21.3695 13.2165C20.4619 13.2165 19.3739 12.6177 19.076 11.2663H24.9299C24.9427 11.1269 24.9587 10.847 24.9587 10.6541H24.9582V10.6541ZM19.1187 10.073C19.2986 9.16759 20.1645 8.28303 21.3289 8.28303C22.4933 8.28303 23.3576 9.16759 23.5354 10.073H19.1187V10.073ZM13.5931 8.24084C12.2739 8.24084 11.6033 8.94859 11.6033 10.3486V14.4947H10.2484V10.2514C10.2612 9.50731 10.393 8.98117 10.6963 8.48761C11.0556 7.93316 11.9076 7 13.5925 7C15.2775 7 16.1279 7.93316 16.4867 8.48761C16.7873 8.98117 16.9234 9.50731 16.9314 10.2514V14.4947H15.578V10.3486C15.578 8.94859 14.9118 8.24084 13.5925 8.24084M32 7.0016L29.1448 13.9718L28.4396 15.6965L28.0493 16.65H26.6415L27.7338 13.9728L24.8162 7.0016H26.3041L28.4407 12.2427L30.581 7.0016H32V7.0016ZM5.73712 13.2202C4.40457 13.2202 3.32027 12.1364 3.32027 10.7535C3.32027 9.37057 4.4051 8.28357 5.73712 8.28357C7.06914 8.28357 8.15023 9.37003 8.15023 10.7535C8.15023 12.1369 7.06059 13.2202 5.73712 13.2202M5.73712 7.0016C3.64113 7.0016 2 8.64839 2 10.753C2 12.8575 3.64113 14.5048 5.73712 14.5048C7.83311 14.5048 9.46837 12.8559 9.46837 10.753C9.46837 8.65 7.82777 7.0016 5.73712 7.0016Z" fill="#84BD06"/>
</svg>
